<svg width="381" height="534" viewBox="0 0 381 534" fill="none" xmlns="http://www.w3.org/2000/svg">
<path d="M32.5983 364.464C31.674 365.891 30.561 367.382 29.3066 368.747C28.6483 369.468 27.9579 370.174 27.2373 370.803C23.5381 374.129 19.29 375.979 16.3737 373.046C15.7002 372.372 15.3231 371.76 15.1665 371.194C14.2253 367.962 20.3861 366.252 19.9163 363.318C19.9163 363.303 19.9012 363.271 19.9012 363.241C19.2109 359.728 2.75223 359.335 3.45772 353.734C3.47287 353.608 3.48971 353.483 3.53685 353.358C4.60266 348.197 13.6158 349.845 13.2874 348.15C13.2723 348.088 13.2554 348.041 13.2083 347.978C12.001 346.143 -2.12222 342.096 0.275434 338.064C0.290588 338.032 0.307425 337.985 0.337733 337.954C3.15969 333.75 9.83743 337.892 11.0447 335.836C11.1693 335.632 11.2164 335.413 11.2164 335.208C11.1221 333.373 6.45142 331.583 8.37931 328.463C8.5359 328.197 8.70932 327.976 8.89622 327.804C11.0278 325.703 13.8818 329.733 14.2893 328.808C14.7287 327.819 12.7368 323.192 13.9441 322.298C14.8382 321.624 15.7625 321.467 16.5926 321.559C18.4885 321.779 20.0106 323.332 20.0106 323.332L32.5983 364.464Z" fill="#3B3B3C"/>
<path d="M32.5978 364.465C31.6734 365.893 30.5605 367.384 29.3061 368.749C25.5446 363.117 19.7441 354.019 18.7086 349.847C17.407 344.638 16.1072 328.653 16.5921 321.562C18.488 321.782 20.0101 323.335 20.0101 323.335L32.5978 364.467V364.465Z" fill="#2B2B2B"/>
<path d="M27.2368 370.802C23.5376 374.129 19.2895 375.979 16.3733 373.045C15.6998 372.371 15.3226 371.76 15.166 371.193C19.3198 372.118 24.3205 371.397 27.2368 370.801V370.802Z" fill="#2B2B2B"/>
<path d="M19.9162 363.319C19.9162 363.304 19.9011 363.272 19.9011 363.242C19.2107 359.729 2.7521 359.336 3.45759 353.735C3.47274 353.609 3.48958 353.484 3.53673 353.359C6.2021 355.007 15.8112 357.799 18.7107 359.258C21.2194 360.514 21.7195 361.769 19.9179 363.321L19.9162 363.319Z" fill="#2B2B2B"/>
<path d="M13.2063 347.977C11.9991 346.142 -2.12418 342.095 0.273481 338.062C2.10708 340.29 12.5632 345.262 14.0044 346.706C14.6948 347.397 14.161 347.788 13.2047 347.977H13.2063Z" fill="#2B2B2B"/>
<path d="M11.2153 335.208C11.121 333.374 6.45026 331.584 8.37815 328.464C8.53473 328.197 8.70816 327.977 8.89506 327.805C8.72331 329.891 11.121 332.839 12.4377 334.159C13.4715 335.193 12.4697 335.539 11.2153 335.21V335.208Z" fill="#2B2B2B"/>
<path d="M82.4564 316.193L82.4632 316.273C82.5457 317.202 83.1686 325.777 82.123 335.479C81.0067 345.757 68.685 367.214 48.5053 369.018C41.9269 369.606 36.4261 367.92 32.0097 364.469C26.1721 359.923 22.2187 352.317 20.0635 342.76L20.0601 342.719C18.8461 337.332 18.208 331.322 18.1255 324.919C17.9049 307.636 32.7421 290.881 43.018 281.371C45.4123 277.207 48.6973 274.349 52.6103 273.306H52.6305L53.3461 273.119C61.4416 271.52 70.0152 278.021 75.7652 288.884C78.2117 293.509 80.1379 298.895 81.2946 304.797C81.4007 305.296 81.4883 305.818 81.5926 306.317C82.1584 309.687 82.4328 312.999 82.4547 316.194L82.4564 316.193Z" fill="#EAE9F5"/>
<path opacity="0.31" d="M43.998 279.816C44.6261 278.884 45.3215 278.008 46.0691 277.27C45.3232 278.028 44.6261 278.884 43.998 279.816Z" fill="#908BC4"/>
<path opacity="0.31" d="M47.8195 275.688C47.2116 276.169 46.6274 276.69 46.0684 277.27C46.6257 276.67 47.2099 276.149 47.8195 275.688Z" fill="#908BC4"/>
<path opacity="0.31" d="M53.3458 273.117C52.8677 273.222 52.408 273.323 51.9551 273.486L52.6101 273.306H52.6303L53.3458 273.119V273.117Z" fill="#908BC4"/>
<path opacity="0.31" d="M67.5145 344.717C79.0396 342.436 85.214 324.557 81.3054 304.785C77.3968 285.012 64.8853 270.833 53.3602 273.115C41.8351 275.396 35.6607 293.275 39.5693 313.047C43.4779 332.82 55.9894 346.999 67.5145 344.717Z" fill="#908BC4"/>
<path d="M66.078 337.458C75.2659 335.639 80.1884 321.387 77.0725 305.625C73.9567 289.863 63.9825 278.559 54.7945 280.378C45.6065 282.197 40.6841 296.45 43.7999 312.212C46.9158 327.974 56.89 339.277 66.078 337.458Z" fill="#3B3B3C"/>
<path opacity="0.17" d="M82.4633 316.273C82.5458 317.202 83.1687 325.777 82.1231 335.479C81.0068 345.757 68.6851 367.214 48.5054 369.018C41.927 369.606 36.4262 367.92 32.0098 364.469C40.0783 359.39 45.0857 348.256 49.1335 335.275C54.4726 342.227 61.1352 345.988 67.5116 344.724C76.725 342.883 82.5239 331.068 82.4633 316.273Z" fill="#908BC4"/>
<path d="M81.5742 306.316H81.5944L81.6045 306.436C81.6012 306.396 81.5776 306.357 81.5742 306.316Z" fill="#603385"/>
<path opacity="0.46" d="M43.018 281.371C39.9856 286.589 38.3119 293.821 38.4062 301.936C33.7978 304.322 30.6357 307.17 27.3137 311.884C21.5906 320.009 20.2436 333.626 20.0601 342.719C18.8461 337.333 18.208 331.322 18.1255 324.919C17.9049 307.637 32.7421 290.881 43.018 281.371Z" fill="white"/>
<path d="M31.4316 314.559C27.4344 318.629 25.5453 323.191 23.8346 322.362C22.1239 321.533 22.7519 316.697 25.2371 311.558C27.7223 306.42 31.1235 302.925 32.8342 303.755C34.5449 304.584 35.4288 310.486 31.4316 314.559Z" fill="white"/>
<path d="M195.836 370.371C195.836 370.371 195.501 374.021 194.965 378.924C194.001 387.829 192.421 400.92 191.054 403.907C188.978 408.43 184.88 413.997 172.691 415.871C172.396 415.941 172.102 415.97 171.78 416.026C161.654 417.407 131.156 418.012 125.063 417.731C101.758 416.604 90.0242 412.715 87.8017 402.512C87.4935 401.117 87.347 399.117 87.0911 396.947C86.9446 395.651 86.7965 394.283 86.6618 392.931C86.2324 388.817 85.9243 384.801 86.0051 383.125C86.032 382.759 86.0725 382.449 86.1263 382.166C86.5944 380.221 88.0155 384.166 88.0155 384.166L88.6452 382.673L90.6674 377.868L91.4571 376.007L195.836 370.371Z" fill="#3B3B3C"/>
<path d="M194.966 378.926C194.001 387.831 192.422 400.921 191.054 403.909C188.978 408.431 184.88 413.998 172.691 415.872C178.692 411.476 182.737 406.812 181.987 399.794C181.546 395.581 161.616 401.936 137.922 400.95C117.321 400.104 98.8793 395.708 86.6637 392.933C86.2344 388.818 85.9262 384.803 86.0071 383.126C86.034 382.761 86.0744 382.45 86.1283 382.167C86.6637 379.419 88.6859 380.307 88.6859 380.307L90.6677 377.869C120.468 375.247 178.425 373.148 183.782 372.796C186.288 372.641 190.492 375.289 194.966 378.926Z" fill="#2B2B2B"/>
<path d="M93.121 402.196C94.1261 401.382 96.049 404.152 102.198 406.563C108.349 408.974 116.397 410.112 115.392 410.926C114.387 411.74 105.653 412.68 99.5024 410.268C93.3516 407.857 92.1141 403.01 93.1193 402.196H93.121Z" fill="#575763"/>
<path d="M201.342 378.574C194.344 391.128 151.596 392.749 140.823 392.96C140.527 392.96 140.261 392.973 140.035 392.973C139.98 392.987 139.909 392.987 139.867 392.973C139.501 392.973 139.022 392.973 138.459 392.96C129.49 392.763 98.583 391.565 85.0507 383.618C82.5874 382.168 80.6864 380.505 79.6156 378.574C71.9562 364.834 55.41 315.036 58.9459 271.581C58.9745 271.229 59.0015 270.89 59.0435 270.553V270.54C59.1564 269.102 59.3113 267.678 59.4796 266.256C66.7736 265.439 73.5743 264.693 79.8833 264.015H79.8967C84.4025 263.537 88.6556 263.085 92.6545 262.662C117.619 260.056 132.911 258.689 138.459 258.195C138.937 258.153 139.346 258.111 139.685 258.098C139.995 258.111 140.36 258.153 140.825 258.182C146.273 258.633 161.101 259.901 184.587 262.31C189.445 262.804 194.683 263.353 200.286 263.945H200.3C206.622 264.62 213.409 265.368 220.646 266.17C220.788 266.184 220.927 266.199 221.082 266.213C221.209 266.226 221.337 266.241 221.463 266.255C221.956 270.369 222.266 274.555 222.406 278.767C223.743 320.378 208.564 365.582 201.34 378.574H201.342Z" fill="#EAE9F5"/>
<path d="M140.131 293.615C185.049 293.615 221.462 282.424 221.462 268.62C221.462 254.816 185.049 243.625 140.131 243.625C95.2123 243.625 58.7988 254.816 58.7988 268.62C58.7988 282.424 95.2123 293.615 140.131 293.615Z" fill="#EAE9F5"/>
<path opacity="0.31" d="M139.711 293.615C184.629 293.615 221.042 282.424 221.042 268.62C221.042 254.816 184.629 243.625 139.711 243.625C94.7924 243.625 58.3789 254.816 58.3789 268.62C58.3789 282.424 94.7924 293.615 139.711 293.615Z" fill="#908BC4"/>
<path d="M140.13 284.643C174.862 284.643 203.017 277.469 203.017 268.62C203.017 259.771 174.862 252.598 140.13 252.598C105.399 252.598 77.2441 259.771 77.2441 268.62C77.2441 277.469 105.399 284.643 140.13 284.643Z" fill="#2B2B2B"/>
<path opacity="0.31" d="M203.017 268.618C203.017 271.394 200.234 274.012 195.336 276.3C193.861 276.984 192.184 277.655 190.338 278.273C179.589 281.904 162.887 284.324 143.954 284.614C142.73 284.627 141.506 284.641 140.265 284.641H139.93C138.622 284.641 137.331 284.627 136.039 284.602C115.782 284.274 98.1397 281.498 87.5927 277.433C85.781 276.735 84.1713 275.985 82.8142 275.21C79.243 273.197 77.2461 270.974 77.2461 268.62C77.2461 263.043 88.4481 258.123 105.452 255.255C107.028 254.992 108.672 254.743 110.349 254.505C119.203 253.282 129.365 252.598 140.131 252.598C149.472 252.598 158.359 253.11 166.325 254.059C167.85 254.242 169.344 254.428 170.802 254.638C190.02 257.375 203.015 262.61 203.015 268.622L203.017 268.618Z" fill="#2B2B2B"/>
<path d="M195.334 276.303C193.859 276.987 192.182 277.658 190.337 278.276C179.588 281.907 162.885 284.327 143.953 284.617C142.729 284.63 141.505 284.644 140.264 284.644H139.929C138.62 284.644 137.329 284.63 136.037 284.605C115.78 284.276 98.138 281.501 87.591 277.435C85.7793 276.738 84.1696 275.988 82.8125 275.213C82.863 275.081 82.9135 274.936 82.9809 274.778C83.8362 272.765 84.993 270.818 86.4191 268.963C87.1397 268.016 87.9277 267.095 88.7831 266.2C92.9251 261.859 98.6431 258.122 105.452 255.254C106.057 254.991 106.659 254.742 107.264 254.504C116.319 250.953 127.203 248.887 138.858 248.887C150.513 248.887 160.457 250.767 169.278 254.056C169.798 254.24 170.302 254.437 170.803 254.636C177.998 257.477 184.051 261.266 188.478 265.699C191.697 268.936 194.046 272.514 195.336 276.303H195.334Z" fill="#EF883E"/>
<path opacity="0.17" d="M195.334 276.303C193.859 276.987 192.182 277.658 190.337 278.276C179.588 281.907 162.885 284.327 143.953 284.617C142.729 284.63 141.505 284.644 140.264 284.644H139.929C138.62 284.644 137.329 284.63 136.037 284.605C115.78 284.276 98.138 281.501 87.591 277.435C85.7793 276.738 84.1696 275.988 82.8125 275.213C82.863 275.081 82.9135 274.936 82.9809 274.778C83.8362 272.765 84.993 270.818 86.4191 268.963C87.1397 268.016 87.9277 267.095 88.7831 266.2C92.9251 261.859 98.6431 258.122 105.452 255.254C106.057 254.991 106.659 254.742 107.264 254.504C116.319 250.953 127.203 248.887 138.858 248.887C150.513 248.887 160.457 250.767 169.278 254.056C169.798 254.24 170.302 254.437 170.803 254.636C177.998 257.477 184.051 261.266 188.478 265.699C191.697 268.936 194.046 272.514 195.336 276.303H195.334Z" fill="#744F00"/>
<path d="M139.865 392.976C138.949 392.99 138.457 392.99 138.457 392.99V392.961C139.021 392.974 139.499 392.974 139.865 392.974V392.976Z" fill="#EAE9F5"/>
<path d="M140.823 392.961V392.99C140.823 392.99 140.527 392.99 140.035 392.976C140.261 392.976 140.528 392.963 140.823 392.963V392.961Z" fill="#EAE9F5"/>
<path d="M186.654 314.871L186.457 317.041L186.148 320.465L184.007 344.293C184.007 350.183 179.515 354.945 173.982 354.945L152.284 356.861C144.638 357.467 136.979 357.452 129.333 356.861L107.803 354.945C105.902 354.945 104.114 354.381 102.593 353.381C100.482 352.015 98.8755 349.845 98.1717 347.251C97.9175 346.308 97.7777 345.32 97.7777 344.293L95.4693 318.647L95.1309 314.871C95.1309 308.98 99.6231 304.219 105.156 304.219L129.979 306.15C137.625 306.741 145.3 306.728 152.931 306.121L176.628 304.219C180.443 304.219 183.767 306.487 185.455 309.826C186.217 311.334 186.653 313.053 186.653 314.871H186.654Z" fill="#3B3B3C"/>
<path opacity="0.17" d="M201.342 378.575C194.344 391.13 151.596 392.751 140.823 392.961V392.99C140.823 392.99 140.527 392.99 140.035 392.977C139.98 392.99 139.909 392.99 139.867 392.977C138.951 392.99 138.459 392.99 138.459 392.99V392.961C129.49 392.764 98.5831 391.566 85.0508 383.62C114.845 392.582 158.341 380.338 178.942 371.854C196.5 364.612 215.551 294.353 221.183 266.172C226.816 314.081 208.567 365.584 201.344 378.575H201.342Z" fill="#908BC4"/>
<path d="M77.4934 336.03C79.7015 335.832 80.8546 328.545 80.069 319.754C79.2834 310.962 76.8566 303.995 74.6485 304.193C72.4404 304.391 71.2872 311.678 72.0728 320.469C72.8584 329.261 75.2853 336.228 77.4934 336.03Z" fill="white"/>
<path d="M81.1541 353.517C82.3102 353.332 82.7969 350.367 82.2412 346.896C81.6856 343.424 80.298 340.76 79.142 340.946C77.986 341.131 77.4993 344.095 78.0549 347.567C78.6105 351.038 79.9981 353.702 81.1541 353.517Z" fill="white"/>
<path d="M185.472 320.463L183.332 344.29C183.332 350.181 178.84 354.942 173.307 354.942L151.609 356.858C143.963 357.465 136.303 357.45 128.658 356.858L107.127 354.942C105.227 354.942 103.438 354.378 101.918 353.379C119.069 356.774 163.676 349.898 173.307 345.078C181.586 340.935 183.783 329.198 185.472 320.461V320.463Z" fill="#2B2B2B"/>
<path opacity="0.19" d="M184.783 309.826C175.391 304.952 158.805 311.673 150.778 312.672C139.514 314.081 109.944 308.445 101.497 311.264C94.3712 313.645 97.2588 336.063 97.4979 347.251C97.2436 346.308 97.1039 345.32 97.1039 344.293L94.7955 318.647L94.457 314.871C94.457 308.98 98.9493 304.219 104.482 304.219L129.306 306.15C136.951 306.741 144.626 306.728 152.257 306.121L175.954 304.219C179.769 304.219 183.093 306.487 184.782 309.826H184.783Z" fill="white"/>
<path d="M115.892 312.664C109.666 311.09 102.604 310.524 102.274 309.01C101.944 307.497 107.314 306.909 114.268 307.698C121.221 308.485 127.125 310.348 127.455 311.861C127.785 313.375 122.838 314.419 115.892 312.664Z" fill="#858587"/>
<path d="M129.095 334.464C129.203 333.655 129.514 332.935 130.033 332.307C130.191 332.115 130.393 331.914 130.642 331.705L127.071 328.76C126.105 327.963 125.561 326.939 125.441 325.69C125.322 324.441 125.66 323.333 126.457 322.366C127.253 321.398 128.277 320.854 129.524 320.734C130.772 320.615 131.88 320.953 132.846 321.75L134.392 323.026L133.981 322.296C133.517 321.484 133.323 320.608 133.4 319.668C133.478 318.728 133.818 317.892 134.419 317.162C135.216 316.195 136.239 315.651 137.487 315.531C138.735 315.412 139.842 315.75 140.809 316.547C141.228 316.893 141.58 317.314 141.861 317.808L147.758 328.167L153.243 332.693C154.21 333.49 154.754 334.514 154.873 335.763C154.993 337.011 154.654 338.12 153.858 339.087L146.325 348.232C145.663 349.035 144.825 349.551 143.809 349.778C142.794 350.006 141.816 349.893 140.873 349.438L135.276 346.776C134.264 346.294 133.33 345.699 132.473 344.991L130.051 342.993C128.565 341.766 128.065 340.273 128.55 338.513C128.693 337.911 128.991 337.337 129.442 336.789C129.102 336.049 128.986 335.274 129.092 334.465L129.095 334.464ZM131.345 335.205C131.397 335.754 131.634 336.203 132.053 336.548C132.291 336.743 132.538 336.871 132.796 336.93L139.157 338.637C138.785 338.177 138.607 337.647 138.62 337.045C138.634 336.444 138.829 335.914 139.204 335.458L139.824 334.705L136.903 333.928L133.838 333.101C133.459 333.003 133.084 333.011 132.713 333.127C132.343 333.244 132.033 333.451 131.786 333.753C131.441 334.172 131.294 334.657 131.346 335.207L131.345 335.205ZM130.644 339.778C130.691 340.307 130.942 340.76 131.398 341.136C131.58 341.286 131.787 341.389 132.02 341.441L138.64 343.224C139.019 343.322 139.395 343.313 139.765 343.197C140.135 343.081 140.445 342.873 140.693 342.572C141.038 342.152 141.184 341.667 141.132 341.118C141.08 340.568 140.843 340.12 140.423 339.775C140.186 339.579 139.938 339.451 139.681 339.392L134.225 337.926C133.872 337.834 133.64 337.773 133.528 337.741C133.417 337.709 133.214 337.672 132.919 337.63C132.624 337.586 132.402 337.583 132.25 337.618C132.099 337.653 131.917 337.726 131.705 337.834C131.493 337.941 131.304 338.096 131.139 338.297C130.764 338.754 130.599 339.246 130.646 339.775L130.644 339.778ZM137.706 317.791C137.081 317.851 136.571 318.123 136.172 318.606C135.87 318.972 135.699 319.39 135.657 319.86C135.615 320.33 135.709 320.768 135.941 321.174L140.881 329.848L140.159 330.725L131.404 323.501C130.92 323.102 130.366 322.933 129.743 322.992C129.12 323.051 128.609 323.324 128.209 323.808C127.81 324.291 127.642 324.846 127.701 325.469C127.762 326.094 128.033 326.605 128.516 327.004L135.835 333.043L140.218 334.221L142.451 331.51C142.924 330.935 143.533 330.624 144.276 330.578L146.945 330.435L146 329.656L139.905 318.925C139.746 318.67 139.566 318.461 139.366 318.296C138.883 317.897 138.329 317.728 137.706 317.787V317.791ZM152.109 337.642C152.508 337.158 152.676 336.604 152.617 335.98C152.558 335.357 152.285 334.844 151.802 334.445L147.589 330.969L144.308 331.159C143.732 331.19 143.259 331.429 142.89 331.876L139.551 335.928C139.206 336.347 139.066 336.823 139.134 337.355C139.201 337.888 139.445 338.326 139.864 338.671C140.284 339.016 140.775 339.155 141.339 339.084C141.903 339.013 142.358 338.767 142.705 338.348L145.05 335.5L145.488 335.861L143.143 338.708C142.616 339.347 141.929 339.653 141.077 339.625C141.491 340.09 141.703 340.636 141.713 341.264C141.723 341.893 141.53 342.45 141.131 342.934C140.814 343.317 140.417 343.586 139.937 343.743C139.457 343.898 138.979 343.911 138.504 343.78L132.673 342.211L133.917 343.239C134.665 343.856 135.443 344.353 136.253 344.729L141.849 347.391C142.324 347.613 142.814 347.671 143.321 347.558C143.828 347.445 144.245 347.189 144.575 346.788L152.109 337.643V337.642Z" fill="#4EFEFE"/>
<path d="M164.995 21.7676L164.989 21.8417C162.015 37.4935 159.173 51.3002 156.582 66.0589L156.577 66.1465C155.925 69.4963 155.046 72.3894 154.214 73.9884C153.758 74.8882 153.317 75.3903 152.957 75.3128L150.237 74.7955C149.236 74.6001 149.246 70.1939 150.241 64.9317L150.248 64.8575C152.839 50.0971 155.646 35.3148 158.654 20.6403L158.661 20.5662C159.671 15.3023 161.279 11.2028 162.28 11.3847L164.999 11.902C165.134 11.9307 165.261 12.0335 165.357 12.2289C165.98 13.3595 165.856 17.2518 164.995 21.7659V21.7676Z" fill="#3B3B3C"/>
<path d="M164.995 21.7691L164.988 21.8433C162.015 37.495 159.173 51.3018 156.581 66.0605L156.576 66.1481C155.925 69.4978 155.046 72.3909 154.214 73.99C153.591 72.8594 151.86 68.5879 152.719 64.0587L152.559 62.613C156.411 57.7957 159.787 35.4714 161.545 20.3217L162.996 20.0875C163.648 16.7226 164.525 13.8312 165.357 12.2305C165.98 13.3611 165.855 17.2534 164.995 21.7674V21.7691Z" fill="#2B2B2B"/>
<path d="M167.457 39.0875C167.462 39.1313 167.467 39.1734 167.457 39.2054L167.15 40.6595C167.032 41.1852 165.766 41.3689 164.3 41.0639H164.285C159.942 40.1422 156.112 39.2222 152.005 38.4623L151.976 38.4657C150.523 38.159 149.425 37.4749 149.542 36.9509L149.589 36.7116L149.85 35.4968C149.968 34.971 151.234 34.7874 152.685 35.0941L152.714 35.0907C156.819 35.8489 160.92 36.7116 164.993 37.694H165.009C166.371 37.9804 167.403 38.582 167.458 39.0891L167.457 39.0875Z" fill="#3B3B3C"/>
<path d="M171.256 32.3436C171.259 32.3722 171.263 32.4009 171.251 32.4312L170.945 33.8853C170.827 34.4111 169.232 34.529 167.362 34.1364L167.331 34.1246C161.763 32.9569 156.853 31.8044 151.595 30.8086L151.565 30.7968C149.827 30.4193 148.467 29.7504 148.379 29.2331C148.376 29.2045 148.371 29.1607 148.382 29.1303L148.689 27.6762C148.807 27.1505 150.416 27.0308 152.287 27.4234L152.304 27.4369C157.576 28.4328 162.831 29.5314 168.04 30.753L168.07 30.7648C169.837 31.1388 171.201 31.8229 171.258 32.3419L171.256 32.3436Z" fill="#3B3B3C"/>
<path d="M176.445 12.5237C176.582 19.5618 170.966 25.3649 163.932 25.4879C158.855 25.5974 154.41 22.6959 152.297 18.4093C151.485 16.758 151.019 14.9214 150.977 12.9651C150.842 5.92697 156.458 0.123905 163.491 0.00258699C166.861 -0.0648122 169.939 1.18881 172.248 3.2883C174.767 5.56976 176.375 8.85884 176.444 12.5237H176.445Z" fill="#EF883E"/>
<path opacity="0.17" d="M176.445 12.5244C176.582 19.5626 170.966 25.3657 163.932 25.4887C158.855 25.5982 154.41 22.6966 152.297 18.4101C154.597 20.2922 158.2 21.8087 163.566 20.3495C172.168 18.0191 173.958 8.82085 172.248 3.28906C174.766 5.57052 176.374 8.8596 176.443 12.5244H176.445Z" fill="#744F00"/>
<path opacity="0.47" d="M163.9 7.57633C164.148 9.81061 162.54 11.8208 160.307 12.0685C158.409 12.2791 156.673 11.1485 156.044 9.43318C155.933 9.12988 155.857 8.80974 155.818 8.47443C155.571 6.24014 157.179 4.22996 159.411 3.98227C160.713 3.83736 161.94 4.32601 162.785 5.20051C163.388 5.82395 163.797 6.64622 163.9 7.57633Z" fill="white"/>
<path opacity="0.13" d="M171.256 32.3436C166.954 31.5179 152.341 28.8388 148.379 29.2331C148.376 29.2045 148.371 29.1607 148.382 29.1303L148.689 27.6762C148.807 27.1505 150.416 27.0308 152.287 27.4234L152.304 27.4369C157.576 28.4328 162.831 29.5314 168.04 30.753L168.07 30.7648C169.837 31.1388 171.201 31.8229 171.258 32.3419L171.256 32.3436Z" fill="white"/>
<path opacity="0.13" d="M167.456 39.0852C162.827 38.2225 152.657 36.4398 149.586 36.7077L149.847 35.4929C149.965 34.9671 151.231 34.7835 152.682 35.0901L152.711 35.0868C156.816 35.845 160.918 36.7077 164.991 37.6901H165.006C166.368 37.9765 167.4 38.5781 167.456 39.0852Z" fill="white"/>
<path d="M71.2699 32.1706L71.2917 32.2414C77.6193 46.8602 83.4164 59.7082 89.1748 73.5419L89.1984 73.6278C90.569 76.7534 92.0591 79.3837 93.2209 80.762C93.8624 81.5388 94.4029 81.9331 94.7379 81.7797L97.277 80.6777C98.2115 80.2666 97.2383 75.9699 95.1134 71.0548L95.0915 70.9841C89.3331 57.1504 83.3575 43.342 77.2084 29.6836L77.1865 29.6128C75.0482 24.6994 72.5815 21.0514 71.647 21.4474L69.1079 22.5494C68.9833 22.6066 68.8806 22.7364 68.8301 22.9453C68.4698 24.1855 69.443 27.9548 71.2715 32.1706H71.2699Z" fill="#3B3B3C"/>
<path d="M71.2696 32.1689L71.2915 32.2397C77.619 46.8585 83.4161 59.7065 89.1746 73.5402L89.1981 73.6261C90.5687 76.7517 92.0588 79.382 93.2206 80.7603C93.5809 79.5201 94.3336 74.9741 92.505 70.7431L92.345 69.2974C87.5312 65.4422 79.3499 44.4001 74.3189 30.0037L72.8523 30.093C71.4801 26.9522 69.9899 24.3236 68.8282 22.9453C68.4678 24.1855 69.441 27.9548 71.2696 32.1706V32.1689Z" fill="#2B2B2B"/>
<path d="M72.6609 49.602C72.6659 49.6458 72.671 49.6879 72.6878 49.7166L73.3057 51.0679C73.5347 51.5549 74.811 51.4572 76.1748 50.8371H76.19C80.2259 48.9836 83.7618 47.2447 87.6007 45.6036L87.6294 45.6002C88.9797 44.9818 89.9024 44.0753 89.6734 43.5883L89.5758 43.3659L89.0555 42.2387C88.8265 41.7517 87.5502 41.8494 86.1999 42.4678L86.1712 42.4712C82.3323 44.1123 78.5186 45.8512 74.7605 47.703H74.7453C73.4792 48.2844 72.6036 49.0982 72.6609 49.6037V49.602Z" fill="#3B3B3C"/>
<path d="M67.4763 43.8564C67.4797 43.8851 67.4831 43.9137 67.4999 43.9424L68.1178 45.2937C68.3468 45.7807 69.9296 45.5465 71.6689 44.7528L71.6958 44.736C76.8733 42.377 81.411 40.1748 86.3225 38.05L86.3495 38.0331C87.9625 37.2833 89.1445 36.333 89.1159 35.809C89.1125 35.7803 89.1074 35.7365 89.0906 35.7096L88.4727 34.3582C88.2437 33.8712 86.6458 34.1071 84.9065 34.9008L84.893 34.9176C79.9664 37.0441 75.0818 39.2699 70.2663 41.6036L70.2394 41.6205C68.5977 42.3737 67.4174 43.3391 67.4747 43.8581L67.4763 43.8564Z" fill="#3B3B3C"/>
<path d="M83.2813 22.8613C83.4177 29.8994 77.8024 35.7025 70.7677 35.8255C65.6912 35.935 61.2461 33.0335 59.133 28.7469C58.3215 27.0956 57.8551 25.259 57.813 23.3027C57.6766 16.2646 63.2919 10.4615 70.3266 10.3385C73.6975 10.2711 76.7753 11.5247 79.0838 13.6242C81.6026 15.9057 83.2106 19.1948 83.2797 22.8596L83.2813 22.8613Z" fill="#EF883E"/>
<path opacity="0.17" d="M83.2811 22.8604C83.4175 29.8985 77.8022 35.7016 70.7675 35.8246C65.691 35.9341 61.2459 33.0326 59.1328 28.746C61.4328 30.6281 65.036 32.1446 70.4021 30.6854C79.0044 28.3551 80.7942 19.1568 79.0835 13.625C81.6024 15.9065 83.2104 19.1955 83.2794 22.8604H83.2811Z" fill="#744F00"/>
<path opacity="0.47" d="M70.7341 17.9123C70.9816 20.1466 69.3736 22.1567 67.141 22.4044C65.2434 22.615 63.5074 21.4844 62.8777 19.7691C62.7666 19.4658 62.6908 19.1457 62.6521 18.8104C62.4046 16.5761 64.0126 14.5659 66.2452 14.3182C67.5467 14.1733 68.7742 14.6619 69.6194 15.5365C70.2222 16.1599 70.6314 16.9822 70.7341 17.9123Z" fill="white"/>
<path opacity="0.13" d="M67.4766 43.8581C71.494 42.1091 85.1644 36.2909 89.1178 35.809C89.1144 35.7803 89.1094 35.7365 89.0926 35.7096L88.4746 34.3582C88.2456 33.8712 86.6478 34.1071 84.9084 34.9008L84.895 34.9176C79.9683 37.0441 75.0838 39.2699 70.2683 41.6036L70.2413 41.6205C68.5997 42.3737 67.4194 43.3391 67.4766 43.8581Z" fill="white"/>
<path opacity="0.13" d="M72.6609 49.6037C76.9881 47.7485 86.5215 43.7787 89.5758 43.3659L89.0555 42.2387C88.8265 41.7517 87.5502 41.8494 86.1999 42.4678L86.1712 42.4712C82.3323 44.1123 78.5186 45.8512 74.7605 47.703H74.7453C73.4792 48.2844 72.6036 49.0982 72.6609 49.6037Z" fill="white"/>
<path d="M89.4121 110.149L173.726 106.645C173.726 106.645 173.046 102.939 172.052 97.962C170.269 88.9035 167.513 75.6242 166.078 72.6671C163.906 68.217 159.98 62.8706 149.997 62.0298C149.758 61.9927 149.519 61.9843 149.259 61.9624C140.975 61.4367 116.462 63.5328 111.614 64.3669C93.0558 67.5919 83.5207 72.1211 83.4753 83.2824C83.455 88.2885 83.913 92.5818 84.4013 95.7984C85.0294 99.7683 85.7298 102.09 85.7298 102.09L86.4067 103.57L89.4138 110.149H89.4121Z" fill="#EAE9F5"/>
<path opacity="0.17" d="M163.784 105.236C165.81 105.178 168.884 102.082 172.05 97.9634C170.266 88.905 167.51 75.6257 166.076 72.6685C163.904 68.2185 159.977 62.8721 149.994 62.0312C155.313 66.0145 158.756 67.5479 158.958 74.8169C159.08 79.1776 142.385 74.431 123.507 77.5482C106.217 80.4026 93.3529 85.289 83.8633 89.2639C84.4913 93.2337 85.7272 102.093 85.7272 102.093L86.404 103.573C108.446 104.12 159.135 105.367 163.784 105.237V105.236Z" fill="#908BC4"/>
<path d="M88.6827 81.5737C89.5818 82.3202 90.8076 79.3057 95.4631 76.2863C100.119 73.2651 106.441 71.383 105.544 70.6365C104.645 69.8901 97.5375 69.7047 92.882 72.7242C88.2264 75.7454 87.7853 80.829 88.6827 81.5737Z" fill="white"/>
<path d="M272.472 228.564C273.45 237.396 257.023 247.238 230.164 255.705C207.22 262.949 176.678 269.192 142.877 272.943C140.306 273.227 137.762 273.495 135.231 273.746L135.203 273.75C133.307 273.93 131.441 274.109 129.559 274.274C128.777 274.346 127.994 274.403 127.212 274.476C125.327 274.626 123.457 274.776 121.603 274.922L121.487 274.936C121.182 274.954 120.862 274.976 120.557 274.995C118.774 275.135 117.018 275.256 115.26 275.364C114.083 275.436 112.908 275.507 111.745 275.578C111.57 275.583 111.383 275.603 111.207 275.608C110.002 275.684 108.795 275.745 107.601 275.789C107.106 275.814 106.613 275.839 106.118 275.866C105.114 275.918 104.124 275.955 103.136 276.006C102.947 276.013 102.757 276.019 102.568 276.024C101.811 276.05 101.053 276.075 100.31 276.1C99.0003 276.158 97.7038 276.2 96.4192 276.225C94.8735 276.265 93.3429 276.302 91.8107 276.341C90.8763 276.356 89.9569 276.372 89.0359 276.372C88.6133 276.388 88.1907 276.392 87.7664 276.395C87.2697 276.407 86.773 276.404 86.2897 276.398C86.2325 276.405 86.1735 276.412 86.1146 276.404C83.4408 276.422 80.8226 276.42 78.2448 276.383C76.487 276.358 74.7594 276.331 73.0572 276.286C71.3566 276.24 69.6695 276.193 68.0076 276.114C66.3474 276.05 64.7024 275.982 63.0995 275.898C61.4966 275.812 59.9054 275.711 58.358 275.605C57.5768 275.546 56.8107 275.499 56.0446 275.438C55.6758 275.406 55.3071 275.374 54.9535 275.354C54.5545 275.31 54.1554 275.281 53.7715 275.251H53.7564C25.7826 272.87 7.65874 266.862 6.68217 258.057C6.68217 258.057 5.42104 250.896 4.83678 239.43C4.5758 234.176 4.44952 228.016 4.67683 221.229C5.45135 197.73 10.2433 166.688 26.8939 139.452C27.5741 138.338 28.2863 137.234 28.9969 136.131C30.0593 134.505 31.1672 132.891 32.3357 131.297C33.4908 129.706 34.7031 128.122 35.9507 126.579C37.0418 125.214 38.1783 123.859 39.362 122.528C39.8284 121.994 40.3116 121.456 40.7932 120.936C40.975 120.725 41.172 120.528 41.3556 120.332C41.758 119.877 42.1789 119.451 42.5982 119.01C42.8204 118.765 43.0427 118.536 43.2801 118.305C43.6859 117.881 44.0933 117.47 44.5025 117.058C44.713 116.844 44.9251 116.646 45.1356 116.432C45.5178 116.053 45.9135 115.672 46.3108 115.291C46.9321 114.694 47.5686 114.098 48.2202 113.513C49.9865 111.897 51.815 110.32 53.721 108.79C54.4315 108.214 55.1589 107.65 55.9015 107.085C56.6693 106.487 57.4522 105.904 58.2503 105.318C58.4389 105.179 58.6291 105.041 58.8329 104.901C59.4289 104.47 60.0384 104.035 60.6496 103.617C61.0436 103.339 61.4359 103.061 61.8451 102.797C62.6061 102.273 63.3823 101.762 64.1619 101.267C65.0493 100.701 65.9517 100.131 66.8694 99.5768C67.8426 98.9854 68.831 98.4075 69.8345 97.8278C70.9356 97.2078 72.0368 96.5877 73.17 95.9946C74.0253 95.5346 74.8975 95.0864 75.7848 94.6516C76.6149 94.2237 77.4602 93.8075 78.3088 93.4064C78.989 93.0829 79.6574 92.7746 80.3528 92.4629C80.8108 92.2371 81.284 92.0231 81.7739 91.8226C82.2184 91.6119 82.6646 91.4165 83.1125 91.2345C84.02 90.8419 84.9276 90.4628 85.852 90.0971C85.921 90.0601 86.0052 90.0213 86.0759 89.9994C87.0693 89.5967 88.0796 89.2058 89.1033 88.8149C91.8545 87.7786 94.6849 86.7912 97.6112 85.8948C98.6265 85.5629 99.6604 85.2579 100.709 84.9512C101.787 84.6412 102.878 84.3295 103.986 84.0312C104.469 83.9048 104.952 83.7768 105.436 83.6504C106.486 83.3724 107.569 83.1062 108.652 82.8551C109.805 82.5805 110.96 82.3058 112.132 82.0598C115.131 81.406 118.193 80.8163 121.352 80.2906C121.379 80.2737 121.408 80.2703 121.438 80.267C121.467 80.2636 121.483 80.2771 121.512 80.2737C123.285 80.1794 125.031 80.1019 126.752 80.058C127.771 80.0176 128.777 79.994 129.786 79.9856C130.108 79.9788 130.443 79.9704 130.764 79.9788C132.02 79.9704 133.249 79.9671 134.465 79.9923C135.637 80.0092 136.809 80.0243 137.954 80.0732C138.365 80.0867 138.76 80.1002 139.158 80.1153C140.112 80.1558 141.067 80.1962 142.012 80.267C142.364 80.272 142.731 80.2889 143.086 80.3243C143.749 80.3681 144.411 80.4119 145.076 80.4692C145.768 80.5096 146.475 80.5618 147.155 80.6326C151.114 80.9831 154.955 81.4785 158.667 82.1205C159.605 82.2654 160.529 82.4254 161.44 82.6024C161.725 82.658 162.008 82.7153 162.292 82.7709C163.22 82.9613 164.148 83.15 165.06 83.3421C165.241 83.3808 165.436 83.4314 165.63 83.4684C166.365 83.6353 167.099 83.8021 167.837 83.984C168.362 84.102 168.888 84.2334 169.415 84.3648C170.378 84.6092 171.326 84.8552 172.277 85.1298C173.408 85.4432 174.525 85.7583 175.631 86.1037C176.736 86.4357 177.828 86.7963 178.906 87.1602C179.923 87.5006 180.928 87.8578 181.918 88.2167C182.787 88.5301 183.656 88.8587 184.513 89.2024C184.971 89.3709 185.415 89.5563 185.86 89.7416C186.548 90.0163 187.237 90.2909 187.914 90.5959C189.126 91.1048 190.31 91.6322 191.482 92.1747C192.177 92.5067 192.856 92.8268 193.521 93.1621C195.545 94.1377 197.503 95.179 199.421 96.2541C200.231 96.7056 201.012 97.1606 201.796 97.629C202.406 97.9862 203.017 98.3569 203.615 98.7293C204.322 99.1775 205.029 99.6122 205.721 100.06C206.115 100.323 206.511 100.588 206.903 100.837L208.612 102.008C210.798 103.521 212.918 105.1 214.97 106.731C216.541 107.976 218.058 109.257 219.531 110.556C219.888 110.868 220.228 111.166 220.555 111.481C221.675 112.484 222.766 113.49 223.832 114.528L223.848 114.541C226.714 117.311 229.386 120.176 231.922 123.141C250.8 145.191 260.903 171.697 266.276 192.611C270.761 209.995 271.953 223.531 272.226 227.436C272.354 227.802 272.425 228.176 272.468 228.565L272.472 228.564Z" fill="#EAE9F5"/>
<path d="M121.373 84.6602V84.6753C121.346 84.6787 121.329 84.6652 121.301 84.6686L121.373 84.6602Z" fill="#160062"/>
<path d="M121.301 84.6696C121.272 84.673 121.243 84.6764 121.215 84.6932V84.6781L121.301 84.668V84.6696Z" fill="#160062"/>
<path opacity="0.17" d="M90.7306 228.949L87.7689 276.381V276.396C87.2739 276.408 86.7772 276.405 86.2939 276.4C86.2367 276.407 86.1778 276.413 86.1188 276.405C83.445 276.423 80.8268 276.422 78.249 276.385C76.4912 276.359 74.7636 276.332 73.0614 276.287C71.3608 276.241 69.6737 276.194 68.0118 276.115C66.3516 276.051 64.7066 275.984 63.1037 275.899C61.5008 275.813 59.9096 275.712 58.3623 275.606C57.581 275.547 56.8149 275.5 56.0488 275.439C55.6801 275.407 55.3113 275.375 54.9577 275.355C54.5587 275.311 54.1596 275.283 53.7757 275.252H53.7606C25.7868 272.872 7.66295 266.863 6.68637 258.059C6.68637 258.059 5.42525 250.898 4.84099 239.431C4.58001 234.178 4.61031 242.633 4.8393 235.846L5.02452 235.795C5.14911 236.001 5.25856 236.193 5.36968 236.4C14.531 252.958 25.2749 257.011 37.605 252.431C43.222 250.345 42.9762 193.888 37.9839 169.272C34.5726 152.471 29.6712 143.475 26.8998 139.45C27.58 138.336 28.2922 137.232 29.0028 136.129C30.0652 134.503 31.1731 132.889 32.3416 131.295C33.4967 129.704 34.709 128.12 35.9566 126.577C37.0477 125.212 38.1842 123.857 39.3679 122.526C39.8343 121.992 40.3175 121.454 40.7991 120.934C40.9809 120.723 41.1779 120.526 41.3615 120.33C41.7639 119.875 42.1848 119.449 42.6041 119.008C42.8263 118.763 43.0486 118.534 43.286 118.303C43.6918 117.879 44.0992 117.468 44.5084 117.057C44.7189 116.843 44.931 116.644 45.1415 116.43L90.7289 228.947L90.7306 228.949Z" fill="#908BC4"/>
<path opacity="0.17" d="M183.596 218.908L196.87 264.539V264.554C197.359 264.456 197.844 264.343 198.313 264.234C198.371 264.227 198.43 264.22 198.485 264.2C201.098 263.632 203.651 263.056 206.158 262.456C207.867 262.047 209.547 261.641 211.197 261.224C212.847 260.807 214.482 260.392 216.087 259.951C217.692 259.524 219.283 259.098 220.828 258.663C222.374 258.228 223.903 257.78 225.39 257.337C226.139 257.108 226.876 256.894 227.611 256.667C227.964 256.554 228.316 256.442 228.658 256.345C229.038 256.215 229.421 256.099 229.788 255.986H229.803C256.574 247.525 272.944 237.69 271.969 228.888C271.969 228.888 271.952 224.514 270.011 213.199C269.115 208.016 270.937 216.273 269.228 209.701L269.037 209.693C268.96 209.92 268.896 210.132 268.834 210.36C263.52 228.524 255.049 231.783 242.015 230.017C236.076 229.213 223.957 174.074 223.442 148.963C223.093 131.821 227.018 127.523 230.87 122.706C229.963 121.767 224.44 115.737 223.504 114.817C222.111 113.464 220.677 112.131 219.187 110.833C217.712 109.534 216.181 108.255 214.627 107.022C213.263 105.93 211.857 104.857 210.411 103.817C209.839 103.397 209.251 102.98 208.665 102.577C208.443 102.412 208.205 102.262 207.985 102.11C207.491 101.755 206.988 101.431 206.483 101.091C206.213 100.9 205.946 100.727 205.663 100.553C205.173 100.226 204.686 99.9146 204.198 99.6046C203.945 99.4428 203.696 99.2946 203.444 99.1328L183.596 218.913V218.908Z" fill="#908BC4"/>
<path d="M223.85 114.523V114.538C223.818 114.629 223.798 114.72 223.764 114.811C222.86 117.472 222.087 120.134 221.457 122.764C220.996 124.673 220.594 126.577 220.258 128.443C220.171 128.965 220.082 129.487 219.994 130.008C218.28 140.398 218.4 149.53 218.977 154.749L230.164 255.704C207.22 262.948 176.678 269.191 142.877 272.941C140.306 273.226 137.762 273.494 135.231 273.745L135.202 273.749C133.306 273.929 131.441 274.107 129.558 274.273C128.777 274.345 127.994 274.402 127.211 274.475C125.327 274.625 123.456 274.775 121.603 274.921L121.486 274.935C121.182 274.953 120.862 274.975 120.557 274.994C118.774 275.134 117.018 275.255 115.26 275.363C114.083 275.435 112.908 275.506 111.744 275.577C111.569 275.582 111.382 275.602 111.207 275.607C110.495 275.642 109.796 275.676 109.097 275.71C108.591 275.752 108.096 275.777 107.601 275.789C107.106 275.814 106.612 275.84 106.117 275.867C105.114 275.919 104.124 275.956 103.135 276.006C102.947 276.013 102.756 276.02 102.568 276.025C101.81 276.05 101.053 276.076 100.31 276.101C99 276.158 97.7036 276.2 96.4189 276.225C94.8732 276.266 93.3427 276.303 91.8104 276.342C90.876 276.357 89.9566 276.372 89.0356 276.372C88.6113 276.375 88.1887 276.379 87.7644 276.382C87.2677 276.394 86.7727 276.404 86.2894 276.399C86.2322 276.406 86.1733 276.413 86.1143 276.404C83.4405 276.423 80.8206 276.406 78.2445 276.384C76.4867 276.359 74.7591 276.332 73.0569 276.286C71.3563 276.241 69.6692 276.193 68.0073 276.114C66.3471 276.05 64.7021 275.983 63.0992 275.899C61.4963 275.813 59.9051 275.712 58.3577 275.605C57.5765 275.546 56.8104 275.499 56.0443 275.439C55.6755 275.407 55.3068 275.375 54.9532 275.354C54.5542 275.311 54.1551 275.282 53.7712 275.252L42.5878 174.325C42.0439 169.41 40.3433 161.199 36.8496 152.105C35.6777 149.045 34.2903 145.892 32.6806 142.72C31.6114 140.6 30.4429 138.49 29.1717 136.392C29.1026 136.298 29.0622 136.2 29.0117 136.133C30.0742 134.507 31.1821 132.893 32.3371 131.3C33.5056 129.708 34.7062 128.139 35.9521 126.583C37.0432 125.218 38.1797 123.863 39.3634 122.532C39.8298 121.998 40.313 121.46 40.7946 120.94C40.9764 120.729 41.1734 120.532 41.357 120.336C41.7594 119.881 42.1803 119.455 42.5996 119.014C42.8218 118.769 43.0441 118.54 43.2815 118.309C43.6873 117.885 44.0947 117.474 44.5039 117.062C44.7143 116.848 44.9265 116.65 45.137 116.436C45.5192 116.056 45.9149 115.676 46.3122 115.295C46.9335 114.698 47.57 114.102 48.2216 113.517C49.9878 111.901 51.8164 110.324 53.7224 108.794C54.4329 108.218 55.1603 107.653 55.9028 107.089C56.6706 106.491 57.4536 105.908 58.2517 105.321C58.4403 105.183 58.6305 105.045 58.8342 104.905C59.4303 104.474 60.0398 104.039 60.651 103.621C61.045 103.343 61.4373 103.065 61.8465 102.801C62.6075 102.277 63.3837 101.766 64.1633 101.271C65.0506 100.705 65.9531 100.135 66.8708 99.5807C67.844 98.9893 68.8323 98.4114 69.8359 97.8317C70.937 97.2117 72.0382 96.5916 73.1714 95.9985C74.0267 95.5385 74.8989 95.0903 75.7862 94.6556C76.6163 94.2276 77.4615 93.8114 78.3102 93.4103C78.9904 93.0868 79.6588 92.7785 80.3542 92.4668C80.8122 92.241 81.2853 92.027 81.7753 91.8265C82.2198 91.6158 82.666 91.4204 83.1139 91.2384C84.0214 90.8458 84.929 90.4667 85.8533 90.101C85.9224 90.064 86.0066 90.0252 86.0773 90.0033C87.0707 89.6006 88.0809 89.2097 89.1047 88.8188C91.8559 87.7825 94.6863 86.7951 97.6126 85.8987C98.6279 85.5668 99.6618 85.2618 100.711 84.9551C101.788 84.6451 102.879 84.3334 103.987 84.0351C104.471 83.9088 104.954 83.7807 105.437 83.6543C106.488 83.3763 107.57 83.1101 108.653 82.859C109.806 82.5844 110.961 82.3097 112.133 82.0637C115.132 81.4099 118.195 80.8202 121.353 80.2945C121.38 80.2776 121.409 80.2743 121.439 80.2709C121.468 80.2675 121.485 80.281 121.513 80.2776C123.286 80.1833 125.032 80.1058 126.753 80.062C127.772 80.0215 128.779 79.9979 129.787 79.9895C130.109 79.9828 130.444 79.9743 130.766 79.9828C132.022 79.9743 133.251 79.971 134.466 79.9962C135.638 80.0131 136.81 80.0282 137.955 80.0771C138.366 80.0906 138.762 80.1041 139.159 80.1192C140.114 80.1597 141.068 80.2001 142.013 80.2709C142.365 80.2759 142.732 80.2928 143.087 80.3282C143.751 80.372 144.412 80.4158 145.077 80.4731C145.769 80.5135 146.477 80.5658 147.157 80.6365C151.115 80.987 154.956 81.4824 158.669 82.1244C159.607 82.2693 160.531 82.4293 161.442 82.6063C161.726 82.6619 162.009 82.7192 162.294 82.7748C163.222 82.9652 164.149 83.1539 165.062 83.346C165.242 83.3847 165.437 83.4353 165.631 83.4723C166.367 83.6392 167.101 83.806 167.838 83.9879C168.364 84.1059 168.889 84.2373 169.416 84.3688C170.379 84.6131 171.327 84.8591 172.278 85.1337C173.41 85.4471 174.526 85.7622 175.632 86.1077C176.737 86.4396 177.83 86.8002 178.907 87.1641C179.924 87.5045 180.929 87.8617 181.92 88.2206C182.788 88.534 183.657 88.8626 184.514 89.2063C184.972 89.3748 185.417 89.5602 185.861 89.7455C186.55 90.0202 187.238 90.2948 187.915 90.5998C189.128 91.1087 190.311 91.6361 191.483 92.1786C192.179 92.5106 192.857 92.8307 193.522 93.166C195.546 94.1416 197.504 95.183 199.422 96.258C200.232 96.7095 201.013 97.1645 201.798 97.6329C202.407 97.9901 203.019 98.3608 203.616 98.7332C204.323 99.1814 205.031 99.6161 205.723 100.064C206.117 100.327 206.512 100.592 206.905 100.841L208.614 102.012C210.799 103.525 212.919 105.104 214.971 106.735C216.542 107.98 218.059 109.261 219.533 110.56C219.89 110.872 220.23 111.17 220.556 111.485C221.691 112.486 222.782 113.492 223.848 114.53L223.85 114.523Z" fill="#3B3B3C"/>
<path d="M147.827 239.27C141.936 239.745 135.696 238.134 130.028 234.517C128.568 233.585 128.139 231.645 129.07 230.185C130.001 228.725 131.941 228.294 133.399 229.227C140.114 233.511 147.716 234.269 153.74 231.241C158.837 228.682 161.895 223.81 162.351 217.527C162.476 215.8 163.969 214.501 165.705 214.625C167.433 214.75 168.731 216.253 168.605 217.982C167.992 226.432 163.599 233.309 156.554 236.85C153.823 238.222 150.87 239.026 147.825 239.272L147.827 239.27Z" fill="#4EFEFE" stroke="#43DBDB" stroke-miterlimit="10"/>
<path d="M26.1433 180.497C27.2527 171.454 26.3115 163.898 24.041 163.619C21.7705 163.34 19.0305 170.444 17.921 179.486C16.8115 188.529 17.7527 196.086 20.0232 196.365C22.2938 196.644 25.0338 189.539 26.1433 180.497Z" fill="white"/>
<path d="M22.4553 208.359C22.6458 204.735 21.8223 201.745 20.616 201.682C19.4097 201.618 18.2774 204.505 18.087 208.129C17.8966 211.753 18.7201 214.743 19.9264 214.806C21.1326 214.87 22.2649 211.983 22.4553 208.359Z" fill="white"/>
<path d="M246.024 174.525C249.951 179.388 251.525 184.558 253.477 183.836C255.428 183.115 255.256 177.777 253.093 171.912C250.929 166.048 247.592 161.879 245.64 162.601C243.689 163.322 242.098 169.662 246.024 174.525Z" fill="white"/>
<path d="M227.932 235.555L230.164 255.705C207.22 262.949 176.679 269.192 142.877 272.943C140.306 273.227 137.762 273.495 135.231 273.746L135.203 273.75C133.307 273.93 131.441 274.109 129.559 274.274C128.778 274.346 127.995 274.404 127.212 274.476C125.328 274.626 123.457 274.776 121.603 274.923L121.487 274.936C121.182 274.955 120.862 274.976 120.558 274.995C118.774 275.135 117.018 275.256 115.26 275.364C114.084 275.436 112.908 275.507 111.745 275.578C111.57 275.583 111.383 275.603 111.208 275.608C110.495 275.644 109.797 275.677 109.098 275.711C108.591 275.753 108.096 275.778 107.601 275.79C107.106 275.816 106.613 275.841 106.118 275.868C105.114 275.92 104.124 275.957 103.136 276.008C102.947 276.014 102.757 276.021 102.568 276.026C101.811 276.051 101.053 276.077 100.31 276.102C99.0005 276.159 97.704 276.201 96.4193 276.227C94.8737 276.267 93.3431 276.304 91.8109 276.343C90.8764 276.358 89.9571 276.373 89.0361 276.373C88.6118 276.377 88.1892 276.38 87.7649 276.383C87.2682 276.395 86.7732 276.405 86.2899 276.4C86.2327 276.407 86.1737 276.414 86.1148 276.405C83.441 276.424 80.8211 276.407 78.245 276.385C76.4871 276.36 74.7596 276.333 73.0574 276.287C71.3568 276.242 69.6697 276.195 68.0078 276.115C66.3476 276.051 64.7026 275.984 63.0997 275.9C61.4967 275.814 59.9056 275.713 58.3582 275.607C57.577 275.548 56.8109 275.5 56.0448 275.44C55.676 275.408 55.3073 275.376 54.9537 275.356C54.5547 275.312 54.1556 275.283 53.7717 275.253L51.2949 252.905C72.1616 261.754 97.9415 269.151 138.387 264.663C193.277 258.571 214.014 245.398 227.927 235.558L227.932 235.555Z" fill="#2B2B2B"/>
<path opacity="0.19" d="M223.851 114.523V114.538C223.819 114.629 223.799 114.72 223.765 114.811C222.893 117.498 221.133 124.848 220.259 128.442C220.143 128.981 220.032 129.433 219.953 129.763C209.364 113.378 165.974 91.6777 123.083 95.0914C79.3279 98.6012 38.0627 135.548 36.8554 152.101C35.6835 149.041 34.2961 145.888 32.6865 142.716C31.6173 140.596 30.4488 138.486 29.1775 136.389C29.1085 136.294 29.0681 136.196 29.0176 136.129C30.08 134.503 31.1879 132.889 32.343 131.297C33.5115 129.704 34.712 128.136 35.958 126.579C37.0491 125.214 38.1856 123.859 39.3693 122.528C39.8357 121.994 40.3189 121.456 40.8004 120.936C40.9823 120.725 41.1793 120.528 41.3628 120.332C41.7652 119.877 42.1862 119.451 42.6054 119.01C42.8277 118.765 43.0499 118.536 43.2873 118.305C43.6931 117.881 44.1006 117.47 44.5097 117.058C44.7202 116.844 44.9324 116.646 45.1428 116.432C45.525 116.053 45.9207 115.672 46.3181 115.291C46.9394 114.694 47.5758 114.098 48.2275 113.513C49.9937 111.897 51.8222 110.32 53.7283 108.79C54.4388 108.214 55.1662 107.65 55.9087 107.085C56.6765 106.487 57.4594 105.904 58.2575 105.318C58.4461 105.179 58.6364 105.041 58.8401 104.901C59.4362 104.47 60.0457 104.035 60.6569 103.617C61.0509 103.339 61.4432 103.061 61.8523 102.797C62.6134 102.273 63.3896 101.762 64.1692 101.267C65.0565 100.701 65.959 100.131 66.8766 99.5768C67.8498 98.9854 68.8382 98.4075 69.8417 97.8278C70.9429 97.2077 72.0441 96.5877 73.1772 95.9946C74.0326 95.5346 74.9047 95.0864 75.7921 94.6516C76.6222 94.2237 77.4674 93.8075 78.316 93.4064C78.9962 93.0829 79.6647 92.7746 80.3601 92.4629C80.8181 92.2371 81.2912 92.0231 81.7812 91.8226C82.2257 91.6119 82.6719 91.4165 83.1197 91.2345C84.0273 90.8419 84.9348 90.4628 85.8592 90.0971C85.9282 90.0601 86.0124 90.0213 86.0831 89.9994C87.0765 89.5967 88.0868 89.2058 89.1105 88.8149C91.8618 87.7786 94.6921 86.7912 97.6185 85.8948C98.6338 85.5629 99.6676 85.2579 100.717 84.9512C101.794 84.6412 102.885 84.3295 103.993 84.0312C104.476 83.9048 104.96 83.7768 105.443 83.6504C106.494 83.3724 107.576 83.1062 108.659 82.8551C109.812 82.5805 110.967 82.3058 112.139 82.0598C115.138 81.406 118.201 80.8163 121.359 80.2906C121.386 80.2737 121.415 80.2703 121.445 80.267C121.474 80.2636 121.491 80.2771 121.519 80.2737C123.292 80.1794 125.038 80.1019 126.759 80.058C127.778 80.0176 128.785 79.994 129.793 79.9856C130.115 79.9788 130.45 79.9704 130.771 79.9788C132.028 79.9704 133.257 79.9671 134.472 79.9923C135.644 80.0092 136.816 80.0243 137.961 80.0732C138.372 80.0867 138.768 80.1002 139.165 80.1153C140.12 80.1558 141.074 80.1962 142.019 80.267C142.371 80.272 142.738 80.2889 143.093 80.3243C143.757 80.3681 144.418 80.4119 145.083 80.4692C145.775 80.5096 146.483 80.5618 147.163 80.6326C151.121 80.9831 154.962 81.4785 158.675 82.1205C159.612 82.2654 160.537 82.4254 161.448 82.6024C161.732 82.658 162.015 82.7153 162.3 82.7709C163.227 82.9613 164.155 83.15 165.068 83.3421C165.248 83.3808 165.443 83.4314 165.637 83.4684C166.373 83.6353 167.107 83.8021 167.844 83.984C168.37 84.102 168.895 84.2334 169.422 84.3648C170.385 84.6092 171.333 84.8552 172.284 85.1298C173.416 85.4432 174.532 85.7583 175.638 86.1037C176.743 86.4357 177.836 86.7963 178.913 87.1602C179.93 87.5006 180.935 87.8578 181.925 88.2167C182.794 88.5301 183.663 88.8587 184.52 89.2024C184.978 89.3709 185.423 89.5563 185.867 89.7416C186.556 90.0163 187.244 90.2909 187.921 90.5959C189.133 91.1048 190.317 91.6322 191.489 92.1747C192.184 92.5067 192.863 92.8268 193.528 93.1621C195.552 94.1377 197.51 95.179 199.428 96.2541C200.238 96.7056 201.019 97.1606 201.804 97.629C202.413 97.9862 203.024 98.3569 203.622 98.7293C204.329 99.1775 205.037 99.6122 205.729 100.06C206.123 100.323 206.518 100.588 206.911 100.837L208.62 102.008C210.805 103.521 212.925 105.1 214.977 106.731C216.548 107.976 218.065 109.257 219.539 110.556C219.896 110.868 220.236 111.166 220.562 111.481C221.697 112.482 222.788 113.488 223.854 114.526L223.851 114.523Z" fill="white"/>
<path d="M78.7947 121.614C67.0287 124.248 54.7795 131.972 52.8718 126.546C50.9641 121.122 59.3609 111.28 71.6287 104.564C83.8948 97.8475 95.3864 96.8011 97.2941 102.227C99.2018 107.651 91.9162 118.677 78.7964 121.614H78.7947Z" fill="#858587"/>
<path opacity="0.2" d="M207.772 165.099C210.446 189.229 198.485 210.352 181.06 212.287C163.634 214.221 147.342 196.232 144.669 172.101C141.995 147.971 153.953 126.845 171.378 124.912C188.803 122.978 205.098 140.97 207.772 165.099Z" fill="url(#paint0_radial_1645_35255)"/>
<path opacity="0.2" d="M119.659 174.88C122.333 199.011 110.371 220.133 92.9462 222.068C75.5211 224.002 59.2292 206.013 56.5554 181.883C53.8816 157.752 65.8396 136.626 83.2647 134.693C100.69 132.759 116.985 150.751 119.659 174.88Z" fill="url(#paint1_radial_1645_35255)"/>
<path d="M96.354 202.226L85.1537 203.469C81.047 203.924 77.3495 200.964 76.8949 196.854L76.8831 196.795C74.7431 185.383 73.4634 173.827 73.0526 162.223V162.164C72.5946 158.054 75.5546 154.354 79.6613 153.899L90.8616 152.656C94.9682 152.201 98.6658 155.161 99.1204 159.271V159.33C99.5329 170.934 100.813 182.49 102.953 193.902L102.964 193.961C103.419 198.071 100.461 201.771 96.354 202.226Z" fill="#4EFEFE"/>
<path d="M96.4744 203.313L85.2741 204.556C80.5764 205.077 76.3317 201.677 75.8114 196.977C73.6697 185.572 72.3749 173.886 71.9641 162.265C71.4472 157.586 74.845 153.338 79.5426 152.816L90.7429 151.572C95.4389 151.052 99.6853 154.452 100.206 159.151C100.621 170.805 101.903 182.38 104.026 193.702C104.57 198.543 101.172 202.79 96.4744 203.311V203.313ZM79.78 154.984C76.2778 155.373 73.7438 158.541 74.1327 162.046C74.5486 173.699 75.83 185.275 77.9532 196.596C78.364 200.241 81.5294 202.777 85.0316 202.388L96.2319 201.144C99.7341 200.755 102.266 197.587 101.879 194.082C99.7375 182.677 98.4427 170.992 98.0318 159.37C97.648 155.887 94.4825 153.352 90.9803 153.741L79.78 154.984Z" fill="#42D9D9"/>
<path d="M172.614 193.767L183.814 192.523C187.921 192.068 190.881 188.366 190.425 184.258V184.199C190.012 172.595 188.733 161.039 186.592 149.627L186.581 149.568C186.126 145.458 182.427 142.496 178.322 142.953L167.122 144.196C163.015 144.651 160.055 148.353 160.511 152.461L160.523 152.52C162.663 163.932 163.943 175.488 164.354 187.092V187.151C164.812 191.261 168.509 194.223 172.616 193.767H172.614Z" fill="#4EFEFE"/>
<path d="M183.935 193.608L172.735 194.852C168.037 195.372 163.792 191.972 163.272 187.272L163.264 187.123C162.858 175.621 161.575 164.043 159.452 152.722C158.908 147.881 162.306 143.633 167.003 143.113L178.204 141.869C182.9 141.348 187.146 144.749 187.666 149.448C189.808 160.854 191.103 172.539 191.515 184.16C192.032 188.84 188.634 193.087 183.937 193.61L183.935 193.608ZM167.241 145.279C163.739 145.669 161.204 148.836 161.593 152.341C163.735 163.747 165.03 175.432 165.442 187.053C165.826 190.536 168.992 193.072 172.494 192.683L183.694 191.439C187.196 191.05 189.729 187.882 189.342 184.378L189.333 184.228C188.927 172.726 187.644 161.149 185.521 149.827C185.109 146.183 181.943 143.647 178.443 144.036L167.242 145.279H167.241Z" fill="#42D9D9"/>
<path d="M225.541 303.564C225.538 303.64 225.533 303.716 225.514 303.775C225.503 303.987 225.477 304.182 225.467 304.379C225.05 309.578 224.132 314.141 222.947 317.826L222.93 317.839C222.93 317.839 222.832 318.198 222.632 318.734C222.56 318.928 222.469 319.15 222.378 319.388C220.999 323.184 219.3 325.885 217.582 327.204C216.838 326.724 216.237 325.63 215.772 324.058C215.759 324.013 215.747 323.95 215.718 323.888C215.533 323.241 215.368 322.518 215.239 321.708C215.106 320.973 214.991 320.163 214.88 319.307C214.836 318.941 214.809 318.56 214.769 318.163L214.754 318.147C214.393 314.001 214.373 308.781 214.607 303.193L214.629 302.77C215.045 296.132 215.793 290.055 216.87 285.728C217.731 282.239 218.815 279.868 220.137 279.211C223.23 282.138 225.663 290.416 225.56 301.503C225.572 301.564 225.568 301.64 225.565 301.7C225.567 302.246 225.553 302.792 225.54 303.353C225.552 303.414 225.548 303.49 225.545 303.566L225.541 303.564Z" fill="#3B3B3C"/>
<path d="M225.557 301.503C224.491 292.903 223.39 284.119 220.323 283.956C219.602 283.917 218.073 284.913 216.869 285.728C217.73 282.239 218.814 279.868 220.136 279.211C223.229 282.138 225.662 290.416 225.559 301.503H225.557Z" fill="#221230"/>
<path d="M322.978 294.209C323.67 294 324.306 293.692 324.894 293.303C328.676 290.814 330.541 284.784 330.208 277.213C329.999 272.635 329.016 267.506 327.16 262.255C322.208 248.24 312.855 238.243 305.396 238.469C305.334 238.469 305.272 238.469 305.209 238.469C304.593 238.482 303.989 238.59 303.389 238.77C288.978 239.722 251.432 240.088 228.772 252.688C226.605 253.881 224.568 255.209 222.697 256.658L219.904 258.483L219.567 258.7C216.198 261.005 214.767 267.213 215.346 275.302C215.754 281.087 217.17 287.849 219.636 294.831C221.014 298.728 222.623 302.403 224.357 305.733C227.73 312.287 231.626 317.513 235.411 320.662C235.597 320.835 235.795 320.987 235.994 321.137C238.986 323.509 241.894 324.529 244.364 323.779C246.797 323.924 251.506 324.357 254.017 324.135C280.339 321.895 310.747 301.328 322.978 294.209Z" fill="#EAE9F5"/>
<path opacity="0.31" d="M324.895 293.302C328.677 290.814 330.542 284.783 330.209 277.212C330 272.634 329.017 267.505 327.161 262.255C322.166 248.118 312.696 238.079 305.21 238.468C296.078 245.742 301.196 258.058 305.549 270.376C307.734 276.562 310.043 281.922 312.72 285.925C316.052 290.899 319.95 293.727 324.895 293.304V293.302Z" fill="#908BC4"/>
<path d="M323.937 263.81C323.912 263.735 323.885 263.661 323.843 263.609C323.771 263.402 323.681 263.216 323.612 263.024C321.624 258.003 319.117 253.792 316.477 250.554L316.45 250.545C316.45 250.545 316.217 250.224 315.793 249.764C315.64 249.597 315.455 249.408 315.263 249.204C312.324 245.925 309.242 243.851 306.504 243.16C305.605 243.907 305.069 245.214 304.85 246.946C304.845 246.997 304.844 247.063 304.822 247.135C304.741 247.846 304.707 248.625 304.748 249.479C304.763 250.259 304.825 251.107 304.902 252C304.941 252.38 305.009 252.768 305.057 253.179L305.041 253.201C305.667 257.459 307.054 262.662 308.893 268.137L309.039 268.549C311.415 275.006 314.097 280.782 316.763 284.7C318.901 287.861 321.043 289.827 323.052 290.004C326.54 285.972 327.663 276.853 324.513 265.855C324.513 265.789 324.488 265.715 324.466 265.656C324.321 265.112 324.154 264.573 323.983 264.02C323.983 263.954 323.957 263.88 323.931 263.806L323.937 263.81Z" fill="#9E9DA6"/>
<path d="M323.614 263.024C321.626 258.003 319.119 253.792 316.479 250.554L316.452 250.545C316.452 250.545 316.219 250.224 315.795 249.764C315.642 249.597 315.457 249.408 315.265 249.204C312.326 245.925 309.243 243.851 306.506 243.16C305.607 243.907 305.071 245.214 304.852 246.946C304.847 246.997 304.846 247.063 304.824 247.135C304.743 247.846 304.709 248.625 304.75 249.479C304.765 250.259 304.827 251.107 304.904 252C306.221 250.62 307.996 248.79 309.046 248.471C313.313 247.179 318.536 255.241 323.613 263.023L323.614 263.024Z" fill="#B1B0BA"/>
<path d="M324.518 265.857C325.375 274.801 326.232 283.944 322.029 285.216C321.043 285.514 318.657 285.078 316.768 284.7C318.906 287.861 321.048 289.828 323.056 290.005C326.545 285.972 327.668 276.853 324.518 265.855V265.857Z" fill="#929199"/>
<path opacity="0.17" d="M322.978 294.207C323.67 293.998 324.306 293.69 324.894 293.3C319.949 293.725 316.051 290.898 312.719 285.922C282.051 298.896 243.34 305.579 224.357 305.729C227.73 312.283 231.626 317.508 235.411 320.658C235.596 320.831 235.795 320.983 235.994 321.133C238.986 323.505 241.894 324.525 244.364 323.775C246.797 323.92 251.506 324.353 254.017 324.13C280.339 321.891 310.747 301.324 322.978 294.205V294.207Z" fill="#908BC4"/>
<path opacity="0.46" d="M301.975 242.152C302.743 240.807 303.82 239.579 305.209 238.469C304.593 238.482 303.989 238.59 303.389 238.77C288.978 239.722 251.432 240.088 228.772 252.688C226.605 253.881 224.568 255.209 222.697 256.658L219.904 258.483L219.567 258.7C216.198 261.005 214.767 267.213 215.346 275.302C233.015 264.522 268.354 249.232 301.975 242.154V242.152Z" fill="white"/>
<path d="M244.483 253.769C257.744 248.179 266.796 249.473 267.949 251.818C269.103 254.164 261.92 256.674 248.659 262.265C235.397 267.856 226.778 273.034 225.625 270.688C224.471 268.343 231.22 259.36 244.481 253.769H244.483Z" fill="white"/>
<path d="M371.735 287.494C372.871 286.434 374.629 283.822 374.403 282.522C373.304 276.193 362.41 277.322 362.051 272.434C361.971 271.308 362.237 270.358 362.747 269.547C365.821 264.598 378.188 264.58 380.6 259.493C380.842 258.949 380.985 258.371 381.002 257.744C381.01 257.297 380.94 256.878 380.817 256.499C378.854 250.495 361.189 253.267 359.465 250.908C359.366 250.807 359.314 250.714 359.3 250.608C358.751 247.575 377.195 236.421 374.329 229.074C374.178 228.68 373.988 228.366 373.723 228.098C369.743 223.709 354.252 233.676 352.523 231.163C352.299 230.882 352.267 230.449 352.457 229.812C354.234 223.803 358.534 217.323 355.269 213.363C354.939 212.962 354.528 212.587 354.039 212.238C348.651 208.487 336.679 229.485 336.679 229.485C336.679 229.485 336.053 229.601 335.288 229.63C333.672 229.694 332.359 228.995 333.094 226.981C334.478 223.197 330.579 217.66 326.043 216.177C325.644 216.042 325.233 215.933 324.841 215.884C320.002 215.165 319.283 220.007 319.119 227.903C319.003 233.369 316.905 236.159 314.393 239.175C313.255 240.502 312.042 241.871 310.903 243.529C308.401 247.117 308.067 262.888 315.075 275.788C322.083 288.69 342.614 287.307 347.004 287.398C359.403 287.679 367.392 291.533 371.738 287.496L371.735 287.494Z" fill="#3B3B3C"/>
<path opacity="0.19" d="M334.282 241.652C330.281 254.613 323.213 258.248 323.213 258.248C323.213 258.248 330.756 256.01 331.8 253.221C332.844 250.433 334.282 241.652 334.282 241.652Z" fill="white"/>
<path d="M371.734 287.492C367.478 288.353 361.278 287.061 357.325 285.056C352.018 282.363 348.672 285.674 348.019 283.672C347.582 282.338 341.488 280.508 329.735 278.184C314.044 275.08 314.021 259.029 314.391 239.172C313.253 240.498 312.041 241.868 310.901 243.526C308.399 247.113 308.065 262.885 315.073 275.785C322.081 288.687 342.612 287.303 347.002 287.394C359.401 287.676 367.39 291.529 371.736 287.492H371.734Z" fill="#2B2B2B"/>
<path d="M362.054 272.435C361.973 271.309 362.239 270.359 362.749 269.548C365.824 264.6 378.191 264.581 380.602 259.494C380.844 258.95 380.988 258.372 381.004 257.745C381.013 257.299 380.942 256.879 380.819 256.5C378.103 259.095 375.31 261.449 372.091 262.504L362.907 265.51C361.076 266.109 359.986 268.066 360.57 269.902C360.86 270.814 361.321 271.736 362.057 272.433L362.054 272.435Z" fill="#2B2B2B"/>
<path d="M340.133 234.746C344.691 235.584 352.023 248.804 352.517 254.179C353.01 259.552 354.837 275.149 352.8 275.671C353.387 269.495 351.456 261.96 349.523 254.423C347.59 246.888 340.133 234.746 340.133 234.746Z" fill="#2B2B2B"/>
<path d="M359.462 250.907C359.363 250.806 359.311 250.713 359.297 250.607C358.748 247.574 377.192 236.42 374.327 229.073C374.175 228.679 373.985 228.366 373.72 228.098C372.82 234.484 357.439 245.323 356.201 247.766C355.098 249.943 356.667 251.224 359.464 250.907H359.462Z" fill="#2B2B2B"/>
<path d="M352.521 231.163C352.297 230.882 352.265 230.449 352.456 229.812C354.232 223.803 358.532 217.323 355.267 213.363C354.838 217.601 351.945 223.445 350.4 227.384C348.881 231.204 350.049 231.73 352.521 231.163Z" fill="#2B2B2B"/>
<path d="M334.973 236.997C335.564 235.829 335.529 232.739 335.286 229.629C333.67 229.693 332.357 228.993 333.093 226.98C334.477 223.195 330.577 217.659 326.041 216.176C329.636 225.409 335.93 234.845 331.628 240.308C326.937 246.275 333.628 239.653 334.973 236.997Z" fill="#2B2B2B"/>
<path opacity="0.13" d="M140.223 533.999C181.33 533.999 214.653 529.535 214.653 524.029C214.653 518.522 181.33 514.059 140.223 514.059C99.1164 514.059 65.793 518.522 65.793 524.029C65.793 529.535 99.1164 533.999 140.223 533.999Z" fill="#908BC4"/>
<path d="M115.782 462.422C115.721 462.371 115.661 462.309 115.605 462.237C115.599 462.232 115.597 462.223 115.592 462.215C115.651 462.287 115.715 462.355 115.784 462.422H115.782Z" fill="white"/>
<path d="M167.829 462.401C165.933 471.013 154.485 482.036 155.992 478.605C157.499 475.175 153.263 467.092 153.263 467.092C153.263 467.092 152.407 477.815 147.199 482.686C141.991 487.559 136.667 494.663 133.611 500.01C130.779 497.504 123.15 486.041 119.746 475.884C116.341 465.727 118.086 461.22 117.934 458.471C114.605 459.912 111.127 467.213 111.127 467.213C111.127 467.213 107.571 461.162 110.844 444.575C114.117 427.99 128.449 424.374 135.176 422.848C135.176 422.848 135.714 422.858 136.637 422.903C140.064 423.084 148.769 423.817 154.589 426.75C155.852 427.382 156.979 428.123 157.888 428.983C164.113 434.87 170.671 449.484 167.829 462.403V462.401Z" fill="#EF883E"/>
<path d="M154.087 461.63C154.201 459.397 150.051 454.344 150.051 454.344C150.051 454.344 147.572 470.729 133.998 477.732C123.848 464.038 129.246 446.374 129.246 446.374C129.246 446.374 127.302 450.084 119.176 449.422C122.279 434.025 130.842 426.626 136.636 422.902C137.956 422.971 140.054 423.121 142.467 423.45C145.107 423.805 148.13 424.373 150.919 425.275C152.211 425.691 153.455 426.176 154.588 426.749C157.205 433.123 160.439 442.517 160.788 446.551C161.317 452.688 153.97 463.861 154.087 461.63Z" fill="#EF9C3E"/>
<path d="M151.891 437.441C150.19 443.463 139.214 452.331 139.579 450.78C139.943 449.228 134.922 435.96 135.591 431.215C136.054 427.931 139.473 425.122 142.469 423.449C145.109 423.805 148.131 424.373 150.921 425.274C152.058 428.821 152.915 433.813 151.891 437.441Z" fill="#EFB13E"/>
<defs>
<radialGradient id="paint0_radial_1645_35255" cx="0" cy="0" r="1" gradientUnits="userSpaceOnUse" gradientTransform="translate(174.848 168.734) rotate(-6.33459) scale(31.6255 43.9556)">
<stop stop-color="#91DFFF"/>
<stop offset="1" stop-color="#91DFFF" stop-opacity="0"/>
</radialGradient>
<radialGradient id="paint1_radial_1645_35255" cx="0" cy="0" r="1" gradientUnits="userSpaceOnUse" gradientTransform="translate(87.0674 178.482) rotate(-6.33459) scale(31.6255 43.9556)">
<stop stop-color="#91DFFF"/>
<stop offset="1" stop-color="#91DFFF" stop-opacity="0"/>
</radialGradient>
</defs>
</svg>
